<?xml version="1.0" encoding="UTF-8"?>
<svg id="Capa_2" data-name="Capa 2" xmlns="http://www.w3.org/2000/svg" viewBox="0 0 129.58 129.09">
  <defs>
    <style>
      .cls-1 {
        fill: #fff;
      }

      .cls-2 {
        fill: none;
        stroke: #fff;
        stroke-miterlimit: 10;
      }
    </style>
  </defs>
  <g id="Capa_4" data-name="Capa 4">
    <g>
      <rect class="cls-2" x="18.98" y="18.88" width="91.91" height="91.91"/>
      <path class="cls-2" d="M25.03,17.11S28.16,3.14,49.15.76c9.32-1.06,18.7,1.21,26.78,5.97,1.54.9,3.23,1.84,5.01,2.72,5.64,2.8,11.89,4.06,18.19,4.07,2.56,0,5.42.69,5.7,3.7l-79.8-.12Z"/>
      <path class="cls-2" d="M24.32,112.56s-2.43,13.55,18.56,15.94c9.32,1.06,23.56-8.15,25.34-9.04,5.64-2.8,10.79,4.13,17.09,4.12,2.56,0,18.53-8.13,18.81-11.14l-79.8.12Z"/>
      <path class="cls-2" d="M112.6,25.08s16.48,13.86,16.48,38.02c0,27.56-13.16,41.49-16.16,41.79l-.32-79.8Z"/>
      <path class="cls-2" d="M16.96,105.49s-24.21-13.15-13.26-25.16c6.32-6.93-6.55-12.94-2.34-23.33.67-1.65,5.15-5.31,6.04-7.1,2.8-5.64-5.67-7.16-5.66-13.46,0-2.56-1.04-11.86,15.32-10.75l-.1,79.8Z"/>
      <path class="cls-1" d="M54.09,42.34l-12.64,2.05c-1.62,0-3.84-3.38-3.84-5h0c0-1.62,2.73-3.84,4.36-3.84l12.12.9c1.62,0,2.95,1.33,2.95,2.95h0c0,1.62-1.33,2.95-2.95,2.95Z"/>
      <path class="cls-1" d="M73.93,42.34l12.64,2.05c1.62,0,3.84-3.38,3.84-5h0c0-1.62-2.73-3.84-4.36-3.84l-12.12.9c-1.62,0-2.95,1.33-2.95,2.95h0c0,1.62,1.33,2.95,2.95,2.95Z"/>
      <g>
        <circle class="cls-1" cx="34.79" cy="66.13" r="1.92"/>
        <circle class="cls-1" cx="39.88" cy="70.64" r="1.92"/>
        <circle class="cls-1" cx="30.54" cy="72.23" r="1.92"/>
        <circle class="cls-1" cx="26.2" cy="67.72" r="1.92"/>
        <circle class="cls-1" cx="43.13" cy="66.13" r="1.92"/>
      </g>
      <g>
        <circle class="cls-1" cx="93.57" cy="66.13" r="1.92"/>
        <circle class="cls-1" cx="88.48" cy="70.64" r="1.92"/>
        <circle class="cls-1" cx="97.82" cy="72.23" r="1.92"/>
        <circle class="cls-1" cx="102.16" cy="67.72" r="1.92"/>
        <circle class="cls-1" cx="85.23" cy="66.13" r="1.92"/>
      </g>
      <ellipse class="cls-1" cx="50.08" cy="55.99" rx="2.76" ry="4.92"/>
      <ellipse class="cls-1" cx="76.78" cy="55.99" rx="2.76" ry="4.92"/>
    </g>
  </g>
</svg>