<?xml version="1.0" encoding="UTF-8"?>
<svg id="Capa_2" data-name="Capa 2" xmlns="http://www.w3.org/2000/svg" viewBox="0 0 160.94 89.89">
  <defs>
    <style>
      .cls-1 {
        fill: #fff;
      }

      .cls-2 {
        fill: none;
        stroke: #fff;
        stroke-miterlimit: 10;
      }
    </style>
  </defs>
  <g id="Capa_5" data-name="Capa 5">
    <g>
      <g>
        <rect class="cls-2" x=".5" y=".5" width="159.94" height="88.89"/>
        <rect class="cls-2" x="38.74" y="40.21" width="83.45" height="32.34"/>
        <line class="cls-2" x1=".07" y1="7.75" x2="160.44" y2="6.96"/>
        <line class="cls-2" x1=".07" y1="14.53" x2="160.44" y2="13.74"/>
        <path class="cls-2" d="M25.75,40.84h9.81v31.71h-9.81c-6.17,0-11.18-5.01-11.18-11.18v-9.36c0-6.17,5.01-11.18,11.18-11.18Z"/>
        <path class="cls-2" d="M136.54,40.84h9.81v31.71h-9.81c-6.17,0-11.18-5.01-11.18-11.18v-9.36c0-6.17,5.01-11.18,11.18-11.18Z" transform="translate(271.71 113.38) rotate(-180)"/>
      </g>
      <path class="cls-1" d="M74.41,49.97h-15.75v.76h6.83c-.41.73-.68,2.02-.68,4.07,0,3.51.77,6.35,1.72,6.35s1.72-2.84,1.72-6.35c0-2.05-.27-3.34-.68-4.07h6.83v-.76Z"/>
      <path class="cls-1" d="M102.18,49.97h-15.75v.76h6.83c-.41.73-.68,2.02-.68,4.07,0,3.51.77,6.35,1.72,6.35s1.72-2.84,1.72-6.35c0-2.05-.27-3.34-.68-4.07h6.83v-.76Z"/>
    </g>
  </g>
</svg>