<?xml version="1.0" encoding="UTF-8"?>
<svg id="Capa_2" data-name="Capa 2" xmlns="http://www.w3.org/2000/svg" viewBox="0 0 246.14 155.18">
  <defs>
    <style>
      .cls-1 {
        fill: #f55;
      }
    </style>
  </defs>
  <g id="Capa_6" data-name="Capa 6">
    <g>
      <g>
        <path d="M99.34,99.35c.39.47,1.01.82,1.68.82.9,0,1.29-.7,1.29-1.87v-24.69c.74.82,1.52,1.72,2.77,1.72,2.03,0,3.12-2.42,7.8-2.42,4.33,0,6.4,2.57,6.4,5.3,0,1.64-.94,2.69-2.22,2.69-1.09,0-1.95-.78-1.95-1.83,0-1.29,1.01-1.56,1.01-2.26,0-.98-.9-2.11-3.39-2.11-3.63,0-5.62,2.85-5.62,7.29v4.64h7.72v2.14h-7.72v11.23h3.78v2.15h-11.54v-2.81Z"/>
        <path d="M122.66,85h-1.87v-1.48h6.08v18.64h-4.21v-17.16ZM122.04,78.61c0-1.4,1.01-2.54,2.54-2.54s2.54,1.13,2.54,2.54-1.01,2.54-2.54,2.54-2.54-1.09-2.54-2.54Z"/>
        <path d="M133,83.13s1.01,1.21,2.61,1.21c1.91,0,2.65-1.6,5.93-1.6,2.92,0,4.6,1.13,4.6,4.33v1.87h-4.21v-1.56c0-2.11-.66-2.81-2.22-2.81-2.34,0-2.54,1.44-2.54,4.72v12.87h-4.17v-19.03Z"/>
        <path d="M149.38,96.23v-13.11c.66.82,1.6,1.21,2.57,1.21,1.87,0,2.96-1.6,6.44-1.6,4.49,0,6.98,2.69,6.98,6.51v4.13h-11.78v3.28c0,3.04,2.07,4.72,4.8,4.72,2.42,0,3.94-1.13,3.94-2.07,0-.51-.98-.55-.98-1.87,0-.9.7-1.6,1.75-1.6,1.13,0,1.87.82,1.87,1.95,0,2.11-2.11,5.15-7.57,5.15-5.85,0-8.04-3.08-8.04-6.71ZM153.59,89.1v2.81h7.57v-2.81c0-3.43-1.25-4.64-3.78-4.64s-3.78,1.21-3.78,4.64Z"/>
        <path d="M168.49,95.26c0-1.95,1.13-3.47,2.89-3.47,1.33,0,2.3.86,2.3,2.22,0,1.95-1.95,1.91-1.95,3.2,0,1.64,2.14,3.16,6.04,3.16,4.21,0,6.47-2.38,6.47-5.5s-2.46-4.6-7.18-5.69c-5.66-1.33-8.15-3.94-8.15-8.35s3.12-7.92,8.62-7.92c4.8,0,6.08,1.79,8.04,1.79.7,0,1.29-.39,1.83-1.09v7.61h-1.76c0-3.67-2.26-5.89-7.14-5.89-3.39,0-5.27,1.52-5.27,4.21,0,2.34,1.44,3.82,5.58,4.8,7.72,1.79,9.79,5.15,9.79,9.48,0,4.8-3.59,8.97-10.53,8.97-6.05,0-9.59-3.24-9.59-7.53Z"/>
        <path d="M193.21,74.39h-1.87v-1.48h6.08v12.71c1.05-1.44,2.85-2.89,5.66-2.89,4.29,0,6.32,2.89,6.32,6.2v11.74h1.91v1.48h-6.08v-13.1c0-3.28-.9-4.64-3.2-4.64-1.75,0-3.39,1.37-4.6,3.28v14.47h-4.21v-27.77Z"/>
        <path d="M214.78,96.27v-13.14s1.05,1.21,2.65,1.21c2.3,0,2.61-1.6,6.75-1.6,4.41,0,6.98,2.69,6.98,6.55v6.98c0,3.59-2.26,6.67-8.15,6.67s-8.23-3.08-8.23-6.67ZM226.95,96.66v-7.57c0-3.43-1.29-4.64-3.98-4.64s-3.98,1.21-3.98,4.64v7.57c0,3.47,1.33,4.68,3.98,4.68s3.98-1.21,3.98-4.68Z"/>
        <path d="M238.65,101.38c-1.21,0-1.99.9-1.99.9v-17.28h-2.34v-1.48h2.34v-4.8h4.17v4.8h4.72v1.48h-4.72v13.14c0,2.03.86,2.77,1.91,2.77.98,0,1.75-.78,1.75-2.07,0-.31-.08-.7-.19-1.05h1.68c.12.23.16.58.16,1.01,0,1.83-1.09,3.82-3.63,3.82-2.3,0-2.42-1.25-3.86-1.25Z"/>
        <path d="M100.75,126.78v-11.15c0-6.43,3.47-9.71,9.59-9.71,4.52,0,6.51,2.18,8.5,2.18.82,0,1.44-.58,2.22-1.48v7.61h-1.72c0-3.63-2.57-5.89-6.86-5.89-4.95,0-6.94,2.61-6.94,7.25v11.27c0,3.82,1.17,6.55,6.01,6.55,2.14,0,5.42-1.29,5.42-6.28v-5.42h-4.56v-2.15h12.09v2.81c-.39-.47-1.01-.82-1.68-.82-.9,0-1.29.7-1.29,1.87v13.26c0,5.65-3.2,7.53-6.12,7.53s-4.88-1.72-4.88-3.98c0-1.83,1.13-2.77,2.22-2.77s1.6.66,1.6,1.52c0,1.48-1.21,1.44-1.21,2.38,0,.66.58,1.21,1.44,1.21,1.37,0,2.38-.9,2.38-3.86v-5.66c-1.33,1.44-3.71,2.65-6.59,2.65-5.81,0-9.63-2.92-9.63-8.93Z"/>
        <path d="M127.27,129.43v-4.13h11.78v-3.28c0-3.04-2.07-4.72-4.8-4.72-2.42,0-3.94,1.13-3.94,2.07,0,.51.98.55.98,1.87,0,.9-.7,1.6-1.75,1.6-1.13,0-1.87-.82-1.87-1.95,0-2.11,2.11-5.15,7.57-5.15,5.85,0,8.03,3.08,8.03,6.71v13.1c-.66-.82-1.6-1.21-2.57-1.21-.78,0-1.52.31-2.38.74-1.25.62-2.22.86-3.71.86-4.84,0-7.33-2.69-7.33-6.51ZM139.04,129.59v-2.81h-7.57v2.81c0,3.43,1.25,4.64,3.78,4.64s3.78-1.21,3.78-4.64Z"/>
        <path d="M148.99,118h-1.87v-1.48h6.08v1.99c.97-1.4,2.57-2.77,5.11-2.77,2.81,0,4.56,1.44,5.38,3.51.9-1.64,2.57-3.51,5.58-3.51,3.94,0,5.81,2.89,5.81,6.2v11.74h1.91v1.48h-6.08v-13.1c0-3.28-.74-4.64-2.69-4.64-1.6,0-3,1.4-4.13,3.32.04.39.08.78.08,1.21v11.74h1.87v1.48h-6.08v-13.1c0-3.28-.74-4.64-2.65-4.64-1.6,0-2.96,1.33-4.09,3.16v14.59h-4.21v-17.16Z"/>
        <path d="M180.46,129.23v-13.11c.66.82,1.6,1.21,2.57,1.21,1.87,0,2.96-1.6,6.43-1.6,4.49,0,6.98,2.69,6.98,6.51v4.13h-11.78v3.28c0,3.04,2.07,4.72,4.8,4.72,2.42,0,3.94-1.13,3.94-2.07,0-.51-.97-.55-.97-1.87,0-.9.7-1.6,1.75-1.6,1.13,0,1.87.82,1.87,1.95,0,2.11-2.11,5.15-7.57,5.15-5.85,0-8.03-3.08-8.03-6.71ZM184.67,122.1v2.81h7.57v-2.81c0-3.43-1.25-4.64-3.78-4.64s-3.78,1.21-3.78,4.64Z"/>
        <path d="M202.03,134.5c-1.09,0-1.79,1.05-1.79,1.05v-6.47h2.73c0,3.51,1.64,5.07,4.99,5.07,2.73,0,3.82-.98,3.82-2.81,0-2.03-2.42-2.92-4.99-3.86-3.63-1.37-6.08-2.54-6.08-6.47,0-3.04,2.54-5.27,6.9-5.27,4.8,0,6.86,2.22,6.86,4.6,0,1.29-.62,2.14-1.76,2.14-.94,0-1.64-.51-1.64-1.44s.7-1.21.7-1.68c0-1.13-1.56-2.03-4.17-2.03s-3.78,1.21-3.78,2.65c0,1.79,1.87,2.61,3.86,3.32,4.41,1.52,7.33,2.65,7.33,6.83,0,3.43-2.18,5.81-6.59,5.81-3.55,0-4.17-1.44-6.4-1.44Z"/>
      </g>
      <path class="cls-1" d="M91.78,102.44s0-.04,0-.06c-.05-1.76-.4-3.49-1-5.08-4.53-11.95-8.1-40.78-8.1-40.78-.06-.14-5.18,21.61-9.1,11.26,0,0-4.44-39.64-4.44-39.64l.26,16.22s-.28,16.34-8.53-5.41c-5.24-13.82-7.46-25.14-12.7-38.96-3.69,30.32-6.23,28.22-8.96,35.42-7.55,19.9-12.85-4.82-12.85-4.82h0s-4.08,31.35-6.58,38.1c-3.35,9.05-3.74-18.68-5.48-15.01,0,0-8,29.29-13.25,43.62-.26.7-.94,2.58-1,5.08,0,.02,0,.04,0,.06-.33,11.45,1.56,52.74,45.88,52.74s46.2-41.29,45.88-52.74Z"/>
      <g>
        <path d="M34.98,111.47h-16.75c1.09,13.54,11.87,24.32,25.41,25.41v-16.75c-4.35-.89-7.77-4.32-8.66-8.66Z"/>
        <path d="M43.64,98.29v-16.75c-13.54,1.09-24.32,11.87-25.41,25.41h16.75c.89-4.35,4.32-7.77,8.66-8.66Z"/>
        <path d="M56.82,106.95h16.75c-1.09-13.54-11.87-24.32-25.41-25.41v16.75c4.35.89,7.77,4.32,8.66,8.66Z"/>
        <path d="M48.16,120.13v16.75c13.54-1.09,24.32-11.87,25.41-25.41h-16.75c-.89,4.35-4.32,7.77-8.66,8.66Z"/>
        <path d="M48.16,81.54v-7.9h-4.52v7.9c.75-.06,1.5-.11,2.26-.11s1.51.05,2.26.11Z"/>
        <path d="M43.64,136.88v7.9h4.52v-7.9c-.75.06-1.5.11-2.26.11s-1.51-.05-2.26-.11Z"/>
        <path d="M43.64,111.47v8.66c.73.15,1.48.23,2.26.23s1.53-.08,2.26-.23v-8.66h-4.52Z"/>
        <path d="M48.16,106.95v-8.66c-.73-.15-1.48-.23-2.26-.23s-1.53.08-2.26.23v8.66h4.52Z"/>
        <path d="M81.47,106.95h-7.9c.06.75.11,1.5.11,2.26s-.05,1.51-.11,2.26h7.9v-4.52Z"/>
        <path d="M18.24,106.95h-7.9v4.52h7.9c-.06-.75-.11-1.5-.11-2.26s.05-1.51.11-2.26Z"/>
        <path d="M48.16,111.47h8.66c.15-.73.23-1.49.23-2.26s-.08-1.53-.23-2.26h-8.66v4.52Z"/>
        <path d="M43.64,106.95h-8.66c-.15.73-.23,1.49-.23,2.26s.08,1.53.23,2.26h8.66v-4.52Z"/>
      </g>
    </g>
  </g>
</svg>